# xmcd
#
# Track frame offsets:
#	150
#	13201
#	30432
#	47723
#	58629
#	74556
#	94404
#	107224
#	121866
#	135913
#	154427
#	170061
#	183916
#
# Disc length: 2654 seconds
# Revision: 0
# Processed by: cddbd v1.5.2PL0 Copyright (c) Steve Scherf et al.
# Submitted via: dBpowerAMP V12.0
#
DISCID=b50a5c0d
DTITLE=Bryan Sutton - The More I Learn
DYEAR=2016
DGENRE=Country
TTITLE0=Walkin’ Across This Land
TTITLE1=Don’t Look for Me
TTITLE2=Backwater Blues
TTITLE3=Arkansas Traveller
TTITLE4=Play Me a Record
TTITLE5=Virginia Creeper
TTITLE6=Chase the Moon
TTITLE7=The Secesh
TTITLE8=Time Has Come
TTITLE9=The More I Learn
TTITLE10=Presbyterian Guitar
TTITLE11=Hills for the Head
TTITLE12=You’re Gonna Make Me Lonesome When You Go
EXTD=
EXTT0=
EXTT1=
EXTT2=
EXTT3=
EXTT4=
EXTT5=
EXTT6=
EXTT7=
EXTT8=
EXTT9=
EXTT10=
EXTT11=
EXTT12=
PLAYORDER=
